<svg xmlns="http://www.w3.org/2000/svg" xmlns:svg="http://www.w3.org/2000/svg" id="svg65" width="15" height="25" version="1.1" viewBox="0 0 15 25"><metadata id="metadata71"/><path id="path63" fill="rgba(255, 255, 255, 0.5)" d="m 2.4401194,9.6438439 c -0.01,0.35 0.1,0.6500001 0.34,0.9000001 0.24,0.25 0.53,0.37 0.89,0.36 0.34,0.02 0.63,-0.1 0.88,-0.37 l 1.66,-1.6400001 V 19.193844 c -0.01,0.35 0.11,0.64 0.36,0.88 0.25,0.24 0.55,0.35 0.92,0.34 0.34,0.02 0.64,-0.09 0.89,-0.32 0.25,-0.23 0.39,-0.53 0.4,-0.88 V 8.9138439 l 1.6399996,1.6400001 c 0.23,0.24 0.53,0.37 0.88,0.37 a 1.22,1.22 0 0 0 1.26,-1.2500001 1.13,1.13 0 0 0 -0.4,-0.85 l -3.7399996,-3.84 a 1.47,1.47 0 0 0 -0.92,-0.4 c -0.37,0.02 -0.68,0.16 -0.92,0.41 l -3.75,3.81 c -0.26,0.22 -0.39,0.5 -0.39,0.84 z"/></svg>