<?xml version="1.0"?>
<svg xmlns="http://www.w3.org/2000/svg" width="512px" height="512px" viewBox="0 0 128 128"><g><g><path d="M53.469,26.455a1.75,1.75,0,0,0,1.75-1.75v-8a1.75,1.75,0,1,0-3.5,0v8A1.749,1.749,0,0,0,53.469,26.455Z" data-original="#000000" class="active-path" data-old_color="#000000" fill="#FFFFFF"/><path d="M73.806,34.879a1.743,1.743,0,0,0,1.237-.513L80.7,28.712a1.75,1.75,0,1,0-2.474-2.475l-5.655,5.655a1.75,1.75,0,0,0,1.238,2.987Z" data-original="#000000" class="active-path" data-old_color="#000000" fill="#FFFFFF"/><path d="M31.894,72.565,26.24,78.22a1.75,1.75,0,1,0,2.475,2.474l5.654-5.654a1.75,1.75,0,0,0-2.475-2.475Z" data-original="#000000" class="active-path" data-old_color="#000000" fill="#FFFFFF"/><path d="M80.479,53.466a1.75,1.75,0,0,0,1.75,1.75h8a1.75,1.75,0,0,0,0-3.5h-8A1.75,1.75,0,0,0,80.479,53.466Z" data-original="#000000" class="active-path" data-old_color="#000000" fill="#FFFFFF"/><path d="M26.458,53.466a1.75,1.75,0,0,0-1.75-1.75h-8a1.75,1.75,0,1,0,0,3.5h8A1.75,1.75,0,0,0,26.458,53.466Z" data-original="#000000" class="active-path" data-old_color="#000000" fill="#FFFFFF"/><path d="M28.715,26.237a1.75,1.75,0,0,0-2.475,2.475l5.654,5.654a1.75,1.75,0,1,0,2.475-2.474Z" data-original="#000000" class="active-path" data-old_color="#000000" fill="#FFFFFF"/><path d="M58.756,53.444,55.188,34.6a1.75,1.75,0,0,0-3.439,0L48.182,53.444a8.993,8.993,0,1,0,10.574,0ZM53.469,66.2A5.488,5.488,0,0,1,50.662,56a1.746,1.746,0,0,0,.821-1.177l1.986-10.482,1.985,10.482A1.747,1.747,0,0,0,56.276,56,5.489,5.489,0,0,1,53.469,66.2Z" data-original="#000000" class="active-path" data-old_color="#000000" fill="#FFFFFF"/><path d="M117.509,83.216a21.779,21.779,0,0,0-12.042-17.4,53.455,53.455,0,1,0-52,41.12c.507,0,1.01-.018,1.513-.036l.259-.008h6.212l-3.63,3.63A1.75,1.75,0,1,0,60.3,113l6.1-6.1h9.45l-3.63,3.63A1.749,1.749,0,1,0,74.7,113l6.105-6.1H90.25l-3.63,3.63A1.75,1.75,0,1,0,89.1,113l6.1-6.1h9.449l-3.629,3.63A1.749,1.749,0,1,0,103.493,113l6.105-6.1h6.587a11.874,11.874,0,0,0,1.324-23.675ZM3.5,53.466a49.969,49.969,0,1,1,98.679,11.041,21.42,21.42,0,0,0-3.08-.676A46.808,46.808,0,1,0,40.373,98.405a11.832,11.832,0,0,0,1.91,3.752A50.045,50.045,0,0,1,3.5,53.466ZM43.11,86.885c-.861-.266-1.712-.552-2.536-.878l3.758-3.758a30.082,30.082,0,0,0,5.119,1.131A11.858,11.858,0,0,0,43.11,86.885Zm9.715-6.748A26.521,26.521,0,0,1,44.456,78.6a1.754,1.754,0,0,0-1.83.409l-6.338,6.339a1.748,1.748,0,0,0,.475,2.812A37.754,37.754,0,0,0,41.048,89.9,11.777,11.777,0,0,0,39.9,94.594a43.413,43.413,0,1,1,55.666-31A21.526,21.526,0,0,0,76.769,75.172a17.272,17.272,0,0,0-23.944,4.965Zm63.36,23.254H51.748a8.374,8.374,0,1,1,0-16.748c.169,0,.335.013.6.032a1.743,1.743,0,0,0,1.79-1.22,13.831,13.831,0,0,1,1.124-2.581c.02-.03.034-.064.053-.1A13.771,13.771,0,0,1,76.3,79.2a1.749,1.749,0,0,0,2.773-.675A18.071,18.071,0,0,1,95.95,67.075c.287,0,.568.03.852.043l.045,0A18.225,18.225,0,0,1,114.1,84.939a1.747,1.747,0,0,0,1.81,1.72l.278-.016a8.374,8.374,0,0,1,0,16.748Z" data-original="#000000" class="active-path" data-old_color="#000000" fill="#FFFFFF"/><path d="M95.95,71.575a1.75,1.75,0,0,0,0,3.5A10.2,10.2,0,0,1,106.1,85.066a1.749,1.749,0,0,0,1.749,1.722h.029A1.751,1.751,0,0,0,109.6,85.01,13.716,13.716,0,0,0,95.95,71.575Z" data-original="#000000" class="active-path" data-old_color="#000000" fill="#FFFFFF"/><path d="M67.279,79.127a10.443,10.443,0,0,0-10,7.321A1.75,1.75,0,1,0,60.619,87.5a6.954,6.954,0,0,1,6.66-4.876,1.75,1.75,0,0,0,0-3.5Z" data-original="#000000" class="active-path" data-old_color="#000000" fill="#FFFFFF"/><path d="M64.44,118.393l-6.617,6.617a1.75,1.75,0,1,0,2.475,2.474l6.617-6.617a1.75,1.75,0,1,0-2.475-2.474Z" data-original="#000000" class="active-path" data-old_color="#000000" fill="#FFFFFF"/><path d="M78.839,118.393l-6.617,6.617a1.749,1.749,0,1,0,2.474,2.474l6.617-6.617a1.749,1.749,0,0,0-2.474-2.474Z" data-original="#000000" class="active-path" data-old_color="#000000" fill="#FFFFFF"/><path d="M93.237,118.393,86.62,125.01a1.75,1.75,0,1,0,2.475,2.474l6.617-6.617a1.75,1.75,0,1,0-2.475-2.474Z" data-original="#000000" class="active-path" data-old_color="#000000" fill="#FFFFFF"/><path d="M107.636,118.393l-6.617,6.617a1.749,1.749,0,1,0,2.474,2.474l6.617-6.617a1.749,1.749,0,0,0-2.474-2.474Z" data-original="#000000" class="active-path" data-old_color="#000000" fill="#FFFFFF"/></g></g> </svg>
